<?xml version="1.0" encoding="UTF-8" standalone="no"?>
<svg width="50px" height="50px" viewBox="0 0 77 76" version="1.1" xmlns="http://www.w3.org/2000/svg" xmlns:xlink="http://www.w3.org/1999/xlink">
    <!-- Generator: Sketch 50.2 (55047) - http://www.bohemiancoding.com/sketch -->
    <title>Group</title>
    <desc>Created with Sketch.</desc>
    <defs></defs>
    <g id="Page-1" stroke="none" stroke-width="1" fill="none" fill-rule="evenodd">
        <g id="Group" transform="translate(1.000000, 1.000000)" fill="#AD343E" stroke="#979797" stroke-width="0.5">
            <ellipse id="Oval-3" cx="37.5" cy="37.25" rx="3.27181208" ry="3.25"></ellipse>
            <polygon id="Triangle" points="37.7516779 19 42.2818792 28 33.2214765 28"></polygon>
            <polygon id="Triangle-Copy-2" points="55.8724832 38.5 46.8120805 43 46.8120805 34"></polygon>
            <path d="M19.1275168,38.5 L28.1879195,34 L28.1879195,43 L19.1275168,38.5 Z M37.5,74 C16.7893219,74 0,57.4345357 0,37 C0,16.5654643 16.7893219,0 37.5,0 C58.2106781,0 75,16.5654643 75,37 C75,57.4345357 58.2106781,74 37.5,74 Z M37.5,62.5 C51.5387818,62.5 62.9194631,51.1951899 62.9194631,37.25 C62.9194631,23.3048101 51.5387818,12 37.5,12 C23.4612182,12 12.0805369,23.3048101 12.0805369,37.25 C12.0805369,51.1951899 23.4612182,62.5 37.5,62.5 Z M37.7516779,55.5 L33.2214765,46.5 L42.2818792,46.5 L37.7516779,55.5 Z" id="Triangle-Copy-3"></path>
        </g>
    </g>
</svg>